<?xml version="1.0" encoding="utf-8"?>
<!-- Generator: Adobe Illustrator 16.0.0, SVG Export Plug-In . SVG Version: 6.00 Build 0)  -->
<!DOCTYPE svg PUBLIC "-//W3C//DTD SVG 1.1//EN" "http://www.w3.org/Graphics/SVG/1.1/DTD/svg11.dtd">
<svg version="1.1" xmlns="http://www.w3.org/2000/svg" xmlns:xlink="http://www.w3.org/1999/xlink" x="0px" y="0px"
	 width="283.464px" height="283.465px" viewBox="0 0 283.464 283.465" enable-background="new 0 0 283.464 283.465"
	 xml:space="preserve">
<g id="Layer_2" display="none">
	<rect display="inline" fill-rule="evenodd" clip-rule="evenodd" fill="#303030" width="283.464" height="283.465"/>
</g>
<g id="Layer_1">
	<g>
		<circle fill-rule="evenodd" clip-rule="evenodd" fill="#303030" cx="141.732" cy="141.732" r="140.315"/>
	</g>
</g>
<g id="Layer_6">
	<path fill-rule="evenodd" clip-rule="evenodd" fill="#303030" d="M2.709,131.968c2.149-10.402,3.531-21.037,6.576-31.173
		C25.418,47.129,72.848,8.657,128.559,3.463c1.219-0.111,2.398-0.618,3.596-0.939c6.523,0,13.054,0,19.576,0
		c10.587,2.184,21.407,3.581,31.707,6.687c53.372,16.088,92.218,64.463,96.812,119.846c6.179,74.572-44.979,139.518-118.485,150.41
		C87.812,290.427,17.379,239.194,4.948,165.392c-0.775-4.608-1.493-9.227-2.238-13.845C2.709,145.021,2.709,138.494,2.709,131.968z
		 M141.995,278.329c75.055-0.056,136.261-61.185,136.521-136.349c0.258-75.075-61.441-136.85-136.617-136.793
		C66.84,5.242,5.633,66.371,5.375,141.533C5.116,216.607,66.811,278.386,141.995,278.329z"/>
	<path fill-rule="evenodd" clip-rule="evenodd" fill="#FFFFFF" d="M141.995,278.329C66.811,278.386,5.116,216.607,5.375,141.533
		C5.633,66.371,66.84,5.242,141.899,5.188c75.176-0.057,136.875,61.718,136.617,136.793
		C278.255,217.145,217.049,278.273,141.995,278.329z M276.128,141.678C276.073,67.52,215.991,7.508,141.862,7.568
		C67.703,7.629,7.704,67.703,7.76,141.836c0.057,74.161,60.137,134.173,134.265,134.108
		C216.186,275.886,276.188,215.812,276.128,141.678z"/>
	<path fill-rule="evenodd" clip-rule="evenodd" fill="#303030" d="M276.128,141.678c0.06,74.135-59.942,134.208-134.104,134.267
		C67.897,276.009,7.817,215.997,7.76,141.836C7.704,67.703,67.703,7.629,141.862,7.568C215.991,7.508,276.073,67.52,276.128,141.678
		z M273.684,141.577c-0.124-72.271-59.382-131.491-131.648-131.56C69.606,9.945,10.083,69.511,10.206,141.937
		c0.123,72.272,59.383,131.491,131.646,131.563C214.285,273.57,273.806,214.004,273.684,141.577z"/>
	<path fill-rule="evenodd" clip-rule="evenodd" fill="#FFFFFF" d="M273.684,141.577c0.122,72.427-59.399,131.993-131.833,131.923
		c-72.263-0.072-131.522-59.291-131.646-131.563c-0.123-72.426,59.4-131.991,131.83-131.919
		C214.302,10.086,273.56,69.307,273.684,141.577z M141.83,12.442C70.327,12.492,12.533,70.451,12.631,142.009
		c0.098,71.257,57.88,128.996,129.16,129.065c71.532,0.067,129.46-57.78,129.47-129.297
		C271.269,70.259,213.359,12.392,141.83,12.442z"/>
	<path fill-rule="evenodd" clip-rule="evenodd" fill="#303030" d="M141.83,12.442c71.529-0.051,129.439,57.816,129.432,129.335
		c-0.01,71.517-57.938,129.364-129.47,129.297c-71.28-0.069-129.062-57.809-129.16-129.065
		C12.533,70.451,70.327,12.492,141.83,12.442z M137.368,149.439"/>
</g>
<g id="Layer_7" display="none">
	<g display="inline">
		<g>
			<path fill-rule="evenodd" clip-rule="evenodd" fill="#FFFFFF" d="M122.625,71.181c14.939,0,29.566-0.136,44.19,0.078
				c4.669,0.068,9.389,0.742,13.966,1.698c28.945,6.044,34.622,37.192,26.159,54.714c-6.895,14.27-20.126,20.991-35.879,21.681
				c-10.991,0.479-22.024,0.088-33.694,0.088c0,24.421,0,48.408,0,72.766c-5.242,0-9.832,0-14.742,0
				C122.625,172.086,122.625,122.143,122.625,71.181z M137.682,121.589c10.15,0,19.721,0.167,29.281-0.064
				c5.108-0.125,7.072-3.623,7.433-8.356c0.477-6.306-1.913-11.914-6.527-12.185c-10.002-0.582-20.063-0.181-30.187-0.181
				C137.682,107.904,137.682,114.395,137.682,121.589z"/>
			<path fill-rule="evenodd" clip-rule="evenodd" fill="#FFFFFF" d="M107.704,222.273c-4.209,0-8.093,0-12.271,0
				c0-50.234,0-100.159,0-150.588c3.965,0,7.961,0,12.271,0C107.704,121.889,107.704,171.945,107.704,222.273z"/>
			<path fill-rule="evenodd" clip-rule="evenodd" fill="#303030" d="M137.682,121.589c0-7.194,0-13.685,0-20.786
				c10.123,0,20.185-0.401,30.187,0.181c4.614,0.271,7.004,5.879,6.527,12.185c-0.36,4.733-2.324,8.231-7.433,8.356
				C157.403,121.756,147.833,121.589,137.682,121.589z"/>
		</g>
	</g>
</g>
<g id="Layer_4">
	<circle fill-rule="evenodd" clip-rule="evenodd" fill="#FFFFFF" cx="172.377" cy="110.506" r="38.818"/>
</g>
<g id="Layer_3">
	<rect x="95.432" y="71.686" fill-rule="evenodd" clip-rule="evenodd" fill="#FFFFFF" width="12.217" height="150.52"/>
	<rect x="122.625" y="71.686" fill-rule="evenodd" clip-rule="evenodd" fill="#FFFFFF" width="14.742" height="150.52"/>
	<rect x="134.232" y="71.688" fill-rule="evenodd" clip-rule="evenodd" fill="#FFFFFF" width="38.145" height="77.636"/>
</g>
<g id="Layer_5">
	<path fill-rule="evenodd" clip-rule="evenodd" fill="#303030" d="M167.216,100.802L167.216,100.802h-29.849v20.792h29.462
		c0.129,0.01,0.256,0.028,0.386,0.028c4.02,0,7.277-4.66,7.277-10.41C174.493,105.463,171.236,100.803,167.216,100.802z"/>
</g>
</svg>
